# xmcd
#
# Track frame offsets: 
#        150
#        1202
#        6251
#        15246
#        18852
#        29761
#        52447
#        69199
#        83467
#        89966
#        94519
#        109340
#        123821
#        130885
#        147455
#        155090
#        161854
#        171038
#        177336
#        199123
#        227399
#
# Disc length: 3303 seconds
#
# Revision: 0
# Processed by: cddbd v1.5.2PL0 Copyright (c) Steve Scherf et al.
# Submitted via: ExactAudioCopy v1.1
#
DISCID=110ce515
DTITLE=Nivnička, Kuřátko, Mladí burčáci - Mladé Vzpomínky
DYEAR=2003
DGENRE=Country
TTITLE0=Vzpomínky...
TTITLE1=Vyletěla holubička
TTITLE2=Cigáné
TTITLE3=Na téj lůce zelenéj
TTITLE4=Já su ráda
TTITLE5=Kačenka
TTITLE6=Nad maštalenků
TTITLE7=Jablůčko
TTITLE8=Růža
TTITLE9=V Brodě na rynečku
TTITLE10=Byla milá galánečka
TTITLE11=Husaři
TTITLE12=Na straňanskej Javořině
TTITLE13=U bánovskej boží muky
TTITLE14=Strom
TTITLE15=Zašeu ně šohajek
TTITLE16=Na vrchol Lopeníčka
TTITLE17=U svatebního stolu
TTITLE18=Čepení
TTITLE19=U muziky
TTITLE20=Odváďání nevěsty
EXTD=
EXTT0=
EXTT1=
EXTT2=
EXTT3=
EXTT4=
EXTT5=
EXTT6=
EXTT7=
EXTT8=
EXTT9=
EXTT10=
EXTT11=
EXTT12=
EXTT13=
EXTT14=
EXTT15=
EXTT16=
EXTT17=
EXTT18=
EXTT19=
EXTT20=
PLAYORDER=
